<?xml version="1.0" encoding="UTF-8" standalone="no"?>
<svg
   xmlns:dc="http://purl.org/dc/elements/1.1/"
   xmlns:cc="http://creativecommons.org/ns#"
   xmlns:rdf="http://www.w3.org/1999/02/22-rdf-syntax-ns#"
   xmlns:svg="http://www.w3.org/2000/svg"
   xmlns="http://www.w3.org/2000/svg"
   xmlns:sodipodi="http://sodipodi.sourceforge.net/DTD/sodipodi-0.dtd"
   xmlns:inkscape="http://www.inkscape.org/namespaces/inkscape"
   aria-hidden="true"
   focusable="false"
   data-prefix="fas"
   data-icon="beer"
   class="svg-inline--fa fa-beer fa-w-14"
   role="img"
   viewBox="0 0 448 512"
   version="1.1"
   id="svg851"
   sodipodi:docname="beer-solid.svg"
   inkscape:version="1.0.1 (c497b03c, 2020-09-10)">
  <metadata
     id="metadata857">
    <rdf:RDF>
      <cc:Work
         rdf:about="">
        <dc:format>image/svg+xml</dc:format>
        <dc:type
           rdf:resource="http://purl.org/dc/dcmitype/StillImage" />
      </cc:Work>
    </rdf:RDF>
  </metadata>
  <defs
     id="defs855" />
  <sodipodi:namedview
     pagecolor="#ffffff"
     bordercolor="#666666"
     borderopacity="1"
     objecttolerance="10"
     gridtolerance="10"
     guidetolerance="10"
     inkscape:pageopacity="0"
     inkscape:pageshadow="2"
     inkscape:window-width="1440"
     inkscape:window-height="900"
     id="namedview853"
     showgrid="false"
     inkscape:zoom="1.1875"
     inkscape:cx="224"
     inkscape:cy="256"
     inkscape:window-x="0"
     inkscape:window-y="0"
     inkscape:window-maximized="0"
     inkscape:current-layer="svg851" />
  <path
     fill="currentColor"
     d="M368 96h-48V56c0-13.255-10.745-24-24-24H24C10.745 32 0 42.745 0 56v400c0 13.255 10.745 24 24 24h272c13.255 0 24-10.745 24-24v-42.11l80.606-35.977C429.396 365.063 448 336.388 448 304.86V176c0-44.112-35.888-80-80-80zm16 208.86a16.018 16.018 0 0 1-9.479 14.611L320 343.805V160h48c8.822 0 16 7.178 16 16v128.86zM208 384c-8.836 0-16-7.164-16-16V144c0-8.836 7.164-16 16-16s16 7.164 16 16v224c0 8.836-7.164 16-16 16zm-96 0c-8.836 0-16-7.164-16-16V144c0-8.836 7.164-16 16-16s16 7.164 16 16v224c0 8.836-7.164 16-16 16z"
     id="path849" />
  <path
     style="fill:#ffa300;fill-rule:evenodd;stroke-width:16.5504;fill-opacity:1"
     d="m 20.564587,479.15774 c -5.586333,-0.95789 -10.190862,-3.58966 -14.1501413,-8.08763 -6.50373269,-7.38863 -5.99339307,10.96076 -5.99339307,-215.49399 0,-227.660872 -0.60356421,-207.281208 6.36850147,-215.035823 2.1925276,-2.438618 5.4893879,-4.915469 8.1330299,-6.110146 l 4.445837,-2.009098 H 160 300.63158 l 4.44583,2.009098 c 5.81324,2.627036 11.54503,8.97254 13.23005,14.646612 0.9877,3.325919 1.27149,9.040332 1.27149,25.602396 V 96 l 22.52631,0.0072 c 33.20733,0.01062 43.63263,1.258434 56.63158,6.77831 12.31865,5.23098 24.5737,14.89085 33.0358,26.03998 5.57245,7.34192 11.11282,18.95778 13.46337,28.22714 l 1.92188,7.57895 v 75.78947 c 0,75.73967 -8.4e-4,75.79411 -1.8788,82.83418 -4.00505,15.01718 -9.88067,25.56073 -20.39144,36.59154 -11.0595,11.60666 -12.34304,12.29046 -77.51923,41.29834 L 320,413.32599 l -0.42105,24.28437 c -0.47156,27.19742 -0.54538,27.57516 -6.69195,34.2434 -1.89859,2.05972 -5.43274,4.6405 -7.85369,5.73507 l -4.40173,1.99012 -138.10526,0.12003 C 86.568421,479.765 22.685643,479.52145 20.564587,479.15774 Z M 120.97693,381.5692 c 2.55449,-1.62001 4.43818,-3.68096 5.64736,-6.1788 l 1.81436,-3.74798 L 128.21933,255.02273 128,138.40303 125.68327,134.90236 C 122.65206,130.32208 118.04875,128 112,128 c -6.04875,0 -10.65206,2.32208 -13.683267,6.90236 L 96,138.40303 l -0.219326,116.6197 -0.219327,116.61969 1.814367,3.74798 C 100.04815,380.91093 105.29526,384 112,384 c 4.22394,0 5.82949,-0.43475 8.97693,-2.4308 z m 96,0 c 2.55449,-1.62001 4.43818,-3.68096 5.64736,-6.1788 l 1.81436,-3.74798 L 224.21933,255.02273 224,138.40303 221.68327,134.90236 C 218.65206,130.32208 214.04875,128 208,128 c -6.04875,0 -10.65206,2.32208 -13.68327,6.90236 L 192,138.40303 l -0.21933,116.6197 -0.21932,116.61969 1.81436,3.74798 C 196.04815,380.91093 201.29526,384 208,384 c 4.22394,0 5.82949,-0.43475 8.97693,-2.4308 z m 131.2336,-49.76832 c 30.57032,-13.62971 30.72805,-13.71386 33.46983,-17.85641 L 384,310.43973 l 0.22969,-69.01967 0.22969,-69.01967 -1.82473,-3.76938 c -1.21974,-2.51967 -3.09554,-4.57532 -5.65772,-6.20021 L 373.14395,160 h -26.7825 -26.7825 v 92.22183 92.22182 l 2.73684,-1.15894 c 1.50526,-0.63742 13.15789,-5.80515 25.89474,-11.48383 z"
     id="path1420" />
</svg>
