<?xml version="1.0" encoding="UTF-8" standalone="no"?>
<svg
   xmlns:dc="http://purl.org/dc/elements/1.1/"
   xmlns:cc="http://creativecommons.org/ns#"
   xmlns:rdf="http://www.w3.org/1999/02/22-rdf-syntax-ns#"
   xmlns:svg="http://www.w3.org/2000/svg"
   xmlns="http://www.w3.org/2000/svg"
   xmlns:sodipodi="http://sodipodi.sourceforge.net/DTD/sodipodi-0.dtd"
   xmlns:inkscape="http://www.inkscape.org/namespaces/inkscape"
   aria-hidden="true"
   focusable="false"
   data-prefix="fas"
   data-icon="hamburger"
   class="svg-inline--fa fa-hamburger fa-w-16"
   role="img"
   viewBox="0 0 512 512"
   version="1.1"
   id="svg835"
   sodipodi:docname="hamburger-solid.svg"
   inkscape:version="1.0.1 (c497b03c, 2020-09-10)">
  <metadata
     id="metadata841">
    <rdf:RDF>
      <cc:Work
         rdf:about="">
        <dc:format>image/svg+xml</dc:format>
        <dc:type
           rdf:resource="http://purl.org/dc/dcmitype/StillImage" />
      </cc:Work>
    </rdf:RDF>
  </metadata>
  <defs
     id="defs839" />
  <sodipodi:namedview
     pagecolor="#ffffff"
     bordercolor="#666666"
     borderopacity="1"
     objecttolerance="10"
     gridtolerance="10"
     guidetolerance="10"
     inkscape:pageopacity="0"
     inkscape:pageshadow="2"
     inkscape:window-width="1440"
     inkscape:window-height="900"
     id="namedview837"
     showgrid="false"
     inkscape:zoom="1.1875"
     inkscape:cx="256"
     inkscape:cy="256"
     inkscape:window-x="0"
     inkscape:window-y="0"
     inkscape:window-maximized="0"
     inkscape:current-layer="svg835" />
  <path
     fill="currentColor"
     d="M464 256H48a48 48 0 0 0 0 96h416a48 48 0 0 0 0-96zm16 128H32a16 16 0 0 0-16 16v16a64 64 0 0 0 64 64h352a64 64 0 0 0 64-64v-16a16 16 0 0 0-16-16zM58.64 224h394.72c34.57 0 54.62-43.9 34.82-75.88C448 83.2 359.55 32.1 256 32c-103.54.1-192 51.2-232.18 116.11C4 180.09 24.07 224 58.64 224zM384 112a16 16 0 1 1-16 16 16 16 0 0 1 16-16zM256 80a16 16 0 1 1-16 16 16 16 0 0 1 16-16zm-128 32a16 16 0 1 1-16 16 16 16 0 0 1 16-16z"
     id="path833" />
  <path
     style="fill:#ff9b00;fill-rule:evenodd;stroke-width:16.5504;fill-opacity:1"
     d="m 53.484003,223.08023 c -24.166229,-3.12378 -41.587312,-31.3139 -35.860214,-58.0276 1.633442,-7.61909 3.956495,-12.62498 10.160553,-21.89474 31.67149,-47.321749 88.166878,-84.9439 151.584078,-100.944858 42.01856,-10.60181 87.7337,-12.425243 129.43979,-5.162942 73.78264,12.847806 139.66279,52.700145 175.40744,106.1078 6.20406,9.26976 8.52712,14.27565 10.16056,21.89474 2.46634,11.50411 0.88255,22.95444 -4.75768,34.39665 -6.51423,13.21523 -18.28405,21.94707 -31.93432,23.69157 -7.8711,1.00591 -396.400015,0.94765 -404.200207,-0.0606 z M 136.4843,141.90219 C 141.78883,138.79353 144,134.70341 144,128 c 0,-4.27245 -0.4319,-6.16834 -1.96803,-8.63903 -6.03762,-9.71085 -21.42901,-9.96353 -27.71524,-0.455 -3.14005,4.74962 -3.30417,12.95664 -0.35426,17.71488 4.48584,7.23573 14.98556,9.6979 22.52183,5.28134 z m 256,0 C 397.78883,138.79353 400,134.70341 400,128 c 0,-4.27245 -0.4319,-6.16834 -1.96803,-8.63903 -6.03762,-9.71085 -21.42901,-9.96353 -27.71524,-0.455 -3.14005,4.74962 -3.30417,12.95664 -0.35426,17.71488 4.48584,7.23573 14.98556,9.6979 22.52183,5.28134 z m -128,-32 C 269.78883,106.79353 272,102.70341 272,96 c 0,-4.27245 -0.4319,-6.168339 -1.96803,-8.63903 -6.03762,-9.71085 -21.42901,-9.963532 -27.71524,-0.455004 -3.14005,4.749618 -3.30417,12.956649 -0.35426,17.714884 4.48584,7.23573 14.98556,9.6979 22.52183,5.28134 z"
     id="path843" />
  <path
     style="fill:#ff9b00;fill-opacity:1;fill-rule:evenodd;stroke-width:16.5504"
     d="m 73.684211,479.12967 c -26.418555,-2.74075 -47.470157,-20.82943 -55.339535,-47.55072 -0.779742,-2.6477 -1.404416,-9.70676 -1.682975,-19.01828 -0.405267,-13.54703 -0.299497,-15.13211 1.242322,-18.61765 2.031521,-4.59259 6.068059,-7.85804 11.16549,-9.03258 5.253524,-1.2105 448.607447,-1.2105 453.860967,0 5.09744,1.17454 9.13397,4.43999 11.16549,9.03258 1.53374,3.46726 1.65076,5.14164 1.30111,18.61765 -0.36148,13.93214 -0.54407,15.27811 -3.08772,22.7621 -7.31475,21.52159 -22.77937,36.02416 -45.15147,42.34257 l -6.73684,1.90264 -180.21052,0.10846 c -99.11579,0.0596 -183.052635,-0.1864 -186.526319,-0.54677 z"
     id="path845" />
  <path
     style="fill:#904700;fill-opacity:1;fill-rule:evenodd;stroke-width:16.5504"
     d="M 42.947368,351.18408 C 24.328673,349.02665 8.6422467,335.97766 2.4234788,317.47368 c -2.15735341,-6.41921 -2.15735341,-20.52815 0,-26.94736 5.2042526,-15.48529 15.9205712,-26.36727 31.2607322,-31.744 l 6.736842,-2.36127 H 256 471.57895 l 6.73684,2.36127 c 15.34016,5.37673 26.05648,16.25871 31.26073,31.744 2.15736,6.41921 2.15736,20.52815 0,26.94736 -6.38903,19.01062 -21.60528,31.46661 -41.19082,33.71873 -7.97423,0.91695 -417.522364,0.90894 -425.438332,-0.008 z"
     id="path847" />
</svg>
